PathFileType        4      (X/Y/Z)      C:\Users\pc\Desktop\IMUTRC\Sujet_03\Sujet_03_velo_100.trc         
DataRate	CameraRate	NumFrames	NumMarkers	Units	OrigDataRate	OrigDataStartFrame	OrigNumFrames
60.0	60.0	4	64	mm	60.0	711	947
Frame#	Time	pHipOrigin			pRightASI			pLeftASI			pRightCSI			pLeftCSI			pRightIschialTub			pLeftIschialTub			pSacrum			pL5SpinalProcess			pL3SpinalProcess			pT12SpinalProcess			pIJ			pT4SpinalProcess			pT8SpinalProcess			pPX			pC7SpinalProcess			pTopOfHead			pRightAuricularis			pLeftAuricularis			pBackOfHead			pRightAcromion			pLeftAcromion			pRightArmLatEpicondyle			pRightArmMedEpicondyle			pLeftArmLatEpicondyle			pLeftArmMedEpicondyle			pRightUlnarStyloid			pRightRadialStyloid			pRightOlecranon			pLeftUlnarStyloid			pLeftRadialStyloid			pLeftOlecranon			pRightTopOfHand			pRightPinky			pRightBallHand			pLeftTopOfHand			pLeftPinky			pLeftBallHand			pRightGreaterTrochanter			pRightKneeLatEpicondyle			pRightKneeMedEpicondyle			pRightPatella			pLeftGreaterTrochanter			pLeftKneeLatEpicondyle			pLeftKneeMedEpicondyle			pLeftPatella			pRightTibialTub			pRightLatMalleolus			pRightMedMalleolus			pLeftTibialTub			pLeftLatMalleolus			pLeftMedMalleolus			pRightHeelFoot			pRightFirstMetatarsal			pRightFifthMetatarsal			pRightPivotFoot			pRightHeelCenter			pRightToe			pLeftHeelFoot			pLeftFirstMetatarsal			pLeftFifthMetatarsal			pLeftPivotFoot			pLeftHeelCenter			pLeftToe			
		X1	Y1	Z1	X2	Y2	Z2	X3	Y3	Z3	X4	Y4	Z4	X5	Y5	Z5	X6	Y6	Z6	X7	Y7	Z7	X8	Y8	Z8	X9	Y9	Z9	X10	Y10	Z10	X11	Y11	Z11	X12	Y12	Z12	X13	Y13	Z13	X14	Y14	Z14	X15	Y15	Z15	X16	Y16	Z16	X17	Y17	Z17	X18	Y18	Z18	X19	Y19	Z19	X20	Y20	Z20	X21	Y21	Z21	X22	Y22	Z22	X23	Y23	Z23	X24	Y24	Z24	X25	Y25	Z25	X26	Y26	Z26	X27	Y27	Z27	X28	Y28	Z28	X29	Y29	Z29	X30	Y30	Z30	X31	Y31	Z31	X32	Y32	Z32	X33	Y33	Z33	X34	Y34	Z34	X35	Y35	Z35	X36	Y36	Z36	X37	Y37	Z37	X38	Y38	Z38	X39	Y39	Z39	X40	Y40	Z40	X41	Y41	Z41	X42	Y42	Z42	X43	Y43	Z43	X44	Y44	Z44	X45	Y45	Z45	X46	Y46	Z46	X47	Y47	Z47	X48	Y48	Z48	X49	Y49	Z49	X50	Y50	Z50	X51	Y51	Z51	X52	Y52	Z52	X53	Y53	Z53	X54	Y54	Z54	X55	Y55	Z55	X56	Y56	Z56	X57	Y57	Z57	X58	Y58	Z58	X59	Y59	Z59	X60	Y60	Z60	X61	Y61	Z61	X62	Y62	Z62	X63	Y63	Z63	X64	Y64	Z64	
711	11.833	0.0	1249.98655	7.653960137173716E-14	102.87434000000002	1330.62713	128.6217200000001	81.44697999999998	1327.22871	-144.98023999999992	75.57174	1407.92688	105.75436000000009	57.88840999999999	1405.16206	-120.09685999999992	-65.37647	1210.24227	62.43885000000008	-74.24693	1208.80226	-50.51555999999992	-59.55883	1288.98203	4.204830000000083	3.85923	1376.47706	-2.016009999999916	75.45654	1472.84255	-8.985659999999914	142.50342	1559.93437	-15.552109999999914	412.53415	1583.89614	-35.942659999999925	295.49012	1693.79773	-29.549009999999914	217.95996	1638.55893	-22.694559999999914	309.83262	1504.00437	-26.726589999999927	343.01046	1725.76596	-32.77462999999992	595.87627	1815.4498	-75.16853999999992	525.83417	1760.67181	12.499290000000077	497.03396	1761.30541	-128.96731999999992	481.82745	1808.94096	-51.955569999999916	347.79129	1728.35798	176.19966000000008	330.79917	1696.33215	-245.72335999999993	435.17112	1438.2823	165.54359000000005	413.62856	1431.77345	109.26798000000005	414.78057	1414.72373	-235.75848999999994	403.89409	1411.09491	-176.25725999999995	518.23091	1195.72696	119.34805000000004	567.59446	1216.69351	123.72569000000004	397.67325	1430.73665	137.83779000000007	513.73808	1178.15884	-186.97093999999996	561.02802	1200.04699	-200.50703999999993	383.04274	1407.98448	-201.83184999999995	703.30104	1084.90377	184.89732	609.98837	1099.07347	151.77709000000002	566.15445	1161.68512	120.21206000000004	679.05126	1069.75486	-294.28051	596.91307	1082.77255	-238.69610999999998	561.20082	1145.0386	-197.68461999999997	25.17138000000001	1232.64883	167.9052000000001	319.45189	943.20675	175.68126000000004	326.93994	939.80833	96.13509000000005	352.51452	975.46299	134.55456000000004	0.4031999999999898	1221.70475	-167.09879999999993	291.51569	929.44026	-181.90209999999996	309.65982	934.73949	-104.19914999999996	329.76236	965.55572	-149.41546999999997	341.97365	884.68474	132.19295000000002	17.971330000000002	619.83804	75.51414000000004	32.65943	624.21567	10.425670000000038	349.3465	892.28799	-150.56747999999996	205.86387	495.88195	-176.60285999999996	216.63515	493.28993	-110.65038999999999	-55.8724	595.87627	-2.88001999999996	77.41495	489.0275	-29.606609999999975	45.90753	462.47371	40.89629000000003	78.33656	459.59369	5.702440000000024	-27.12979	567.76727	-0.6335999999999636	136.91618	400.03486	9.446470000000016	173.60764	411.20934	-111.22639999999998	346.29368	411.72775	-119.92405999999998	323.77192	392.20121	-195.899	357.58336	400.95647	-163.18197	212.31512	409.94214	-122.40087999999999	437.99354	396.34844	-185.87653	
712	11.85	0.0	1249.98655	7.653960137173716E-14	101.72233000000001	1331.89434	128.73692000000008	82.54138999999999	1326.0191	-145.0378399999999	74.47733	1408.96369	104.94795000000009	58.63721999999999	1404.12526	-121.01846999999991	-65.83727	1210.70307	62.26605000000008	-73.78613	1208.28385	-50.74595999999992	-59.67403	1288.92443	3.3408200000000825	3.68643	1376.47706	-2.9952199999999163	75.22614	1472.90015	-9.907269999999915	142.15782	1560.04957	-16.300919999999913	412.36135	1584.41455	-34.44504999999993	295.08691	1694.14333	-29.145809999999916	217.55676	1638.73174	-22.924959999999913	309.65982	1504.40757	-26.035389999999925	342.60725	1726.16916	-32.025829999999914	595.70347	1815.7954	-73.44052999999992	525.37336	1761.07501	14.112100000000076	496.86116	1761.82382	-127.41210999999991	481.53945	1809.45936	-50.457959999999915	346.17848	1728.99158	176.7180700000001	331.08717	1697.82976	-245.08975999999993	434.30711	1439.14631	165.48599000000004	412.99496	1432.81026	109.09518000000006	415.01097	1415.64534	-235.35528999999994	403.66369	1411.84371	-175.96925999999993	518.11571	1197.05177	118.02325000000005	567.47926	1218.13352	122.34328000000004	396.92444	1431.65825	137.78019000000006	513.91088	1179.02284	-187.83494999999994	561.20082	1200.9686	-201.37103999999994	383.10034	1408.79089	-201.48623999999995	703.35864	1086.40138	183.28451	610.04597	1100.45588	150.22188000000003	566.03925	1163.12513	118.77205000000004	679.10886	1070.73407	-295.49012	597.02828	1083.63656	-239.79051999999996	561.31602	1145.90261	-198.60621999999998	25.344180000000012	1235.01044	168.0780000000001	335.2344	962.50289	178.10048000000003	343.01046	959.04687	98.55431000000004	366.51142	996.25673	136.74338000000003	0.23039999999998978	1219.28553	-166.63798999999992	271.75875	908.47371	-173.83803999999998	289.32687	913.77294	-96.01988999999996	311.90623	942.51555	-141.40900999999997	355.85535	903.63527	133.86336000000003	23.385770000000004	648.92625	79.60377000000004	37.15227	653.59188	14.342500000000038	331.14477	871.72464	-143.42502999999996	197.45421	472.26578	-173.66523999999998	208.45589	469.15536	-107.77036999999999	-51.14917	625.02208	0.9792100000000414	82.65659	519.21012	-27.41779999999997	51.55237	491.73472	42.912310000000026	83.8662	489.43071	7.603250000000025	-22.17616	597.08588	2.822420000000038	142.67622	430.15988	10.425670000000018	164.33398	387.42037	-109.03757999999999	337.02001	386.03796	-117.33203999999999	314.44065	367.31783	-193.53739	348.30969	375.49709	-160.64755	203.04145	385.74996	-120.09685999999999	428.60467	370.19785	-183.11171	
713	11.867	0.0	1249.98655	7.653960137173716E-14	100.10952000000002	1332.93115	129.31293000000008	84.03899999999999	1325.21269	-144.57703999999993	73.03732	1409.7701	104.77515000000008	59.731629999999996	1403.43405	-121.36406999999991	-66.47088	1210.99107	61.747640000000075	-73.09492	1207.82305	-51.26436999999992	-59.73163	1288.80923	2.4192200000000827	3.5136299999999996	1376.41946	-3.7440299999999156	74.93814	1472.95775	-10.425669999999915	141.75462	1560.22237	-16.47371999999991	412.07335	1584.99055	-32.60182999999993	294.56851	1694.54654	-28.454599999999914	217.09595	1639.01974	-22.694559999999914	309.48702	1504.81078	-24.825779999999927	342.08885	1726.68757	-30.931419999999914	595.30026	1816.31381	-71.53970999999993	524.85496	1761.53582	15.840110000000076	496.51556	1762.39982	-125.68409999999992	481.13625	1809.97776	-48.72994999999992	344.68087	1729.85559	177.58207000000007	331.20237	1698.92417	-244.1105499999999	433.67351	1440.29832	165.71639000000005	412.53415	1434.07747	109.26798000000005	415.01097	1416.27894	-234.66407999999996	403.60609	1412.47732	-175.22044999999994	517.88531	1198.43418	117.44724000000004	567.19126	1219.57353	121.65207000000004	396.40604	1432.81026	138.06819000000004	514.08368	1179.65645	-188.06534999999994	561.31602	1201.65981	-201.60143999999994	383.10034	1409.36689	-200.73743999999994	703.24344	1088.07179	182.76611	609.87317	1102.01109	149.70347000000004	565.86645	1164.56514	118.19605000000004	679.28166	1071.54047	-295.77812	597.20108	1084.38537	-240.02091999999996	561.48882	1146.59381	-198.89421999999996	24.59538000000001	1236.56566	168.25080000000008	349.0009	981.56863	180.46209000000002	357.58336	978.68861	100.97352000000002	378.66511	1017.10808	139.39300000000003	1.3248099999999898	1218.30633	-166.5227899999999	253.67222	891.59679	-167.67479999999998	269.62753	895.85922	-89.45343999999996	295.02931	923.21941	-134.20895999999996	368.64264	923.16181	135.53377000000003	31.449830000000002	673.92483	84.73021000000004	44.06432	679.16646	19.29614000000004	313.11584	854.61732	-137.72258999999997	184.43652	453.66085	-170.38201999999998	195.4958	450.32003	-104.54474999999998	-43.25791	648.17744	5.990440000000043	92.96707	545.59111	-22.579359999999976	62.61165	517.2517	47.75074000000002	94.92548	515.81169	12.384090000000027	-13.6513	620.93245	7.833660000000039	155.17551	457.92328	15.14891000000002	149.12747	369.44905	-105.75435999999999	321.7559	363.5738	-113.58800999999998	298.88854	345.37207	-189.85096	332.87278	352.68733	-156.84592	187.77734	366.79943	-116.69843999999999	412.93736	345.31447	-179.13728	
714	11.883	0.0	1249.98655	7.653960137173716E-14	98.32390000000001	1333.79515	130.17693000000008	85.70940999999999	1324.63669	-143.8858299999999	71.36691	1410.4613	104.83275000000009	60.998839999999994	1402.97325	-121.36406999999991	-67.16208	1211.16387	61.11404000000008	-72.34612	1207.41985	-52.013169999999924	-59.84683	1288.69403	1.4400100000000826	3.2832199999999996	1376.41946	-4.262429999999916	74.59253	1473.07295	-10.598479999999915	141.35141	1560.45278	-16.35851999999991	411.67015	1585.62416	-30.643419999999928	293.99251	1694.94974	-27.648199999999914	216.57755	1639.36534	-22.291359999999916	309.19901	1505.32918	-23.328169999999925	341.45525	1727.20597	-29.837009999999914	594.78186	1816.88981	-69.75409999999992	524.27895	1762.16942	17.568130000000075	496.05475	1763.03343	-124.01368999999991	480.56024	1810.61137	-47.05953999999991	343.24086	1730.8348	178.5036800000001	331.14477	1699.78817	-243.0737399999999	433.2127	1441.62312	166.06199000000007	412.30375	1435.57508	109.49838000000005	414.78057	1416.79735	-233.80006999999995	403.60609	1413.11092	-174.35644999999994	517.48211	1199.87419	117.27444000000004	566.84566	1221.07114	121.19127000000005	396.00284	1434.19267	138.52899000000005	514.14128	1180.17485	-188.06534999999994	561.31602	1202.29341	-201.54383999999993	382.92754	1409.8853	-199.93102999999994	702.95543	1089.85741	182.76611	609.58517	1103.5663	149.70347000000004	565.52085	1166.00515	117.96564000000004	679.39687	1072.23168	-295.66292	597.31628	1085.01897	-239.96331999999998	561.54642	1147.22742	-198.83661999999998	23.32817000000001	1237.54486	168.42361000000008	361.09699	1000.69197	182.82371000000003	370.77386	998.84875	103.45034000000003	389.26359	1038.07463	142.38822000000002	3.1680199999999896	1218.13352	-166.63798999999992	236.50729	877.65749	-163.52756999999997	250.33139	880.3071	-84.78780999999995	278.55559	906.57289	-128.56411999999997	380.68113	943.14915	136.97378000000003	41.87550000000001	695.29458	90.66305000000004	52.99238	701.34262	24.99858000000004	295.02931	839.81401	-133.05694999999997	167.3868	438.62714	-166.40758999999997	178.38848	435.22872	-100.51271999999999	-32.31383	666.78238	11.865680000000042	107.77037	569.26488	-15.84010999999997	78.27896	540.11907	54.48999000000003	110.70799	539.71587	19.296140000000026	-1.7280099999999992	640.63179	13.88170000000004	173.14684	484.13147	22.464160000000017	128.90972	356.31615	-101.14631999999999	301.19256	343.81686	-108.63438	277.74919	325.84553	-184.72452	311.96383	332.12398	-151.77709	167.4444	352.05372	-112.03279999999998	391.74041	321.5255	-173.89565	
